# File created by Blade
# Date/Time:  Wed Jan 21 14:37:15 2015
# Frame Rate: 120.000 fps
#------------------------------------------------------
:FULLY-SPECIFIED
:DEGREES
127
root 18.640631 35.577632 -20.791600 -177.112164 -5.098511 -179.266544
Spine -13.818438 2.340026 0.550409
Head 0.520328 -8.693826 2.564459
LeftShoulder 13.817937 -29.118294 -11.147455
LeftArm 21.661030 44.232798 -61.170456
LeftForeArm -52.994564 -0.000000 70.878616
LeftHand -5.812724 -0.000000 -6.917094
LeftHandThumb1 -26.253704 0.000000 33.147579
RightShoulder 10.909482 10.304816 -15.968886
RightArm 76.072860 -0.928173 33.776217
RightForeArm -37.925624 -0.000000 25.305288
RightHand -3.451929 -0.000000 2.463093
RightHandThumb1 -24.326973 -0.000000 -32.862282
LeftUpLeg 2.285898 10.833309 1.466521
LeftLeg -5.848204 -0.000000 0.000000
LeftFoot -17.799480 28.296103 -10.515011
LeftToeBase 26.818864 -0.000000 -0.000000
RightUpLeg 2.578687 -11.655087 0.486385
RightLeg -3.415165 -0.000000 0.000000
RightFoot -19.288481 -27.412397 12.502786
RightToeBase 23.998941 -0.000000 -0.000000
128
root 18.646122 35.579892 -20.785725 -177.088040 -5.035642 -179.269554
Spine -13.750897 2.358871 0.599742
Head 0.248939 -8.730203 2.578787
LeftShoulder 14.016708 -29.272362 -11.372740
LeftArm 21.712833 44.542477 -62.083617
LeftForeArm -53.582367 -0.000000 72.391804
LeftHand -5.616099 -0.000000 -6.786820
LeftHandThumb1 -26.253704 0.000000 33.147579
RightShoulder 11.200757 10.915906 -16.357093
RightArm 77.134920 -1.390881 34.188480
RightForeArm -38.258564 -0.000000 26.000344
RightHand -3.550547 -0.000000 2.345792
RightHandThumb1 -24.326973 -0.000000 -32.862282
LeftUpLeg 2.263959 10.874418 1.462075
LeftLeg -5.854997 -0.000000 0.000000
LeftFoot -17.780299 28.301471 -10.566323
LeftToeBase 26.917292 -0.000000 -0.000000
RightUpLeg 2.532627 -11.562725 0.496016
RightLeg -3.405779 -0.000000 0.000000
RightFoot -19.274836 -27.434474 12.515907
RightToeBase 23.988923 -0.000000 -0.000000
129
root 18.654362 35.581676 -20.781217 -177.061204 -4.974285 -179.259349
Spine -13.701396 2.401316 0.653956
Head 0.005649 -8.775198 2.556838
LeftShoulder 14.305307 -29.345408 -11.617457
LeftArm 21.718956 44.695536 -62.939050
LeftForeArm -54.477903 -0.000000 74.010352
LeftHand -5.606117 -0.000000 -6.789929
LeftHandThumb1 -26.253704 0.000000 33.147579
RightShoulder 11.467563 11.330853 -16.777685
RightArm 78.231569 -1.695179 34.430837
RightForeArm -38.425465 0.000000 26.810145
RightHand -3.709292 0.000000 2.114858
RightHandThumb1 -24.326973 -0.000000 -32.862282
LeftUpLeg 2.235320 10.915165 1.477906
LeftLeg -5.851754 -0.000000 0.000000
LeftFoot -17.781791 28.311345 -10.598046
LeftToeBase 26.906032 -0.000000 -0.000000
RightUpLeg 2.505398 -11.442426 0.521131
RightLeg -3.434492 -0.000000 0.000000
RightFoot -19.251290 -27.473409 12.516611
RightToeBase 24.064588 -0.000000 -0.000000
130
root 18.660005 35.583110 -20.778339 -177.034066 -4.915381 -179.272857
Spine -13.655697 2.366151 0.690157
Head -0.230236 -8.800662 2.596670
LeftShoulder 14.362638 -29.301581 -11.750597
LeftArm 22.216417 45.035313 -63.400865
LeftForeArm -55.149851 -0.000000 75.499737
LeftHand -5.196304 0.000000 -6.431761
LeftHandThumb1 -26.253704 0.000000 33.147579
RightShoulder 11.770111 11.848620 -17.162253
RightArm 79.268329 -2.064199 34.908653
RightForeArm -38.596315 -0.000000 27.603903
RightHand -3.725887 -0.000000 1.742292
RightHandThumb1 -24.326973 -0.000000 -32.862282
LeftUpLeg 2.211540 10.921874 1.464568
LeftLeg -5.850868 -0.000000 0.000000
LeftFoot -17.783449 28.349743 -10.656845
LeftToeBase 26.898904 -0.000000 -0.000000
RightUpLeg 2.457839 -11.366851 0.519705
RightLeg -3.414322 -0.000000 0.000000
RightFoot -19.255979 -27.477403 12.510880
RightToeBase 24.039076 -0.000000 -0.000000
131
root 18.666164 35.584115 -20.777934 -177.031313 -4.855983 -179.287489
Spine -13.568335 2.265163 0.764263
Head -0.471604 -8.729448 2.567043
LeftShoulder 14.551952 -29.688616 -12.033161
LeftArm 21.843511 45.250409 -64.471424
LeftForeArm -55.779194 -0.000000 77.108729
LeftHand -5.082771 0.000000 -6.222744
LeftHandThumb1 -26.253704 0.000000 33.147579
RightShoulder 12.103587 12.336576 -17.575709
RightArm 80.328252 -2.398403 35.440395
RightForeArm -38.845990 0.000000 28.472956
RightHand -3.787003 0.000000 1.320706
RightHandThumb1 -24.326973 -0.000000 -32.862282
LeftUpLeg 2.215757 10.941370 1.458290
LeftLeg -5.848439 -0.000000 0.000000
LeftFoot -17.788556 28.377503 -10.718882
LeftToeBase 26.846763 -0.000000 -0.000000
RightUpLeg 2.433474 -11.370037 0.514364
RightLeg -3.388840 -0.000000 0.000000
RightFoot -19.255140 -27.430519 12.486136
RightToeBase 24.039585 -0.000000 -0.000000
132
root 18.672820 35.586181 -20.778034 -177.000667 -4.790114 -179.287965
Spine -13.548511 2.399209 0.765108
Head -0.632554 -8.853622 2.605921
LeftShoulder 14.858347 -29.848944 -12.243913
LeftArm 21.840628 45.487167 -65.287718
LeftForeArm -56.495064 -0.000000 78.507283
LeftHand -4.560420 -0.000000 -6.083735
LeftHandThumb1 -26.253704 0.000000 33.147579
RightShoulder 12.224923 12.749833 -17.970753
RightArm 81.279554 -2.730479 35.920407
RightForeArm -39.135560 -0.000000 29.443712
RightHand -3.821231 -0.000000 1.056775
RightHandThumb1 -24.326973 -0.000000 -32.862282
LeftUpLeg 2.192959 10.958353 1.461660
LeftLeg -5.845114 -0.000000 0.000000
LeftFoot -17.794849 28.405396 -10.769840
LeftToeBase 26.862699 -0.000000 -0.000000
RightUpLeg 2.385752 -11.319706 0.528384
RightLeg -3.373450 -0.000000 0.000000
RightFoot -19.250767 -27.407928 12.499819
RightToeBase 24.054641 -0.000000 -0.000000
133
root 18.679751 35.588459 -20.778135 -176.967653 -4.707224 -179.287144
Spine -13.524130 2.635820 0.770214
Head -0.786114 -9.068385 2.561834
LeftShoulder 15.254998 -29.878488 -12.629106
LeftArm 22.150436 45.728595 -65.638866
LeftForeArm -57.208056 -0.000000 80.040658
LeftHand -4.428191 -0.000000 -5.614635
LeftHandThumb1 -26.253704 0.000000 33.147579
RightShoulder 12.282846 13.226112 -18.362490
RightArm 82.136019 -3.102128 36.399665
RightForeArm -39.525956 -0.000000 30.459671
RightHand -3.702020 -0.000000 0.848124
RightHandThumb1 -24.326973 -0.000000 -32.862282
LeftUpLeg 2.164532 10.988378 1.465122
LeftLeg -5.832363 -0.000000 0.000000
LeftFoot -17.810706 28.442945 -10.849869
LeftToeBase 26.829249 -0.000000 -0.000000
RightUpLeg 2.337936 -11.243252 0.544407
RightLeg -3.366428 -0.000000 0.000000
RightFoot -19.244241 -27.397383 12.517350
RightToeBase 24.059642 -0.000000 -0.000000
134
root 18.688231 35.588548 -20.778380 -176.954635 -4.627176 -179.290114
Spine -13.461745 2.621802 0.819003
Head -0.960746 -9.091211 2.585809
LeftShoulder 15.342285 -30.115284 -12.710032
LeftArm 22.049315 45.832981 -66.526390
LeftForeArm -57.793707 -0.000000 81.449847
LeftHand -4.314265 -0.000000 -5.378691
LeftHandThumb1 -26.253704 0.000000 33.147579
RightShoulder 12.550568 13.774273 -18.678375
RightArm 83.058924 -3.469758 36.732317
RightForeArm -39.775692 -0.000000 31.431195
RightHand -3.713409 -0.000000 0.535424
RightHandThumb1 -24.326973 -0.000000 -32.862282
LeftUpLeg 2.155569 10.999542 1.472941
LeftLeg -5.815414 -0.000000 0.000000
LeftFoot -17.839961 28.486266 -10.887378
LeftToeBase 26.817607 -0.000000 -0.000000
RightUpLeg 2.317129 -11.170396 0.554456
RightLeg -3.370039 -0.000000 0.000000
RightFoot -19.245402 -27.390418 12.501243
RightToeBase 24.081516 -0.000000 -0.000000
135
root 18.694458 35.589285 -20.777224 -176.973442 -4.547337 -179.298782
Spine -13.348306 2.514163 0.926067
Head -1.093825 -8.882435 2.486357
LeftShoulder 15.337659 -30.418789 -12.809863
LeftArm 21.893545 45.942598 -67.313508
LeftForeArm -58.788212 -0.000000 82.955956
LeftHand -4.145273 0.000000 -4.778301
LeftHandThumb1 -26.253704 0.000000 33.147579
RightShoulder 12.948684 14.547101 -18.985811
RightArm 83.774107 -3.971113 37.116499
RightForeArm -39.987519 -0.000000 32.636990
RightHand -3.931925 -0.000000 0.475634
RightHandThumb1 -24.326973 -0.000000 -32.862282
LeftUpLeg 2.171178 11.028827 1.475633
LeftLeg -5.787007 -0.000000 0.000000
LeftFoot -17.864538 28.523287 -10.934883
LeftToeBase 26.776679 -0.000000 -0.000000
RightUpLeg 2.320726 -11.085974 0.549617
RightLeg -3.358852 -0.000000 0.000000
RightFoot -19.242334 -27.395859 12.479919
RightToeBase 24.058687 -0.000000 -0.000000
